<svg xmlns="http://www.w3.org/2000/svg" viewBox="0 0 600 760" fill="none" role="img" aria-labelledby="t d"><title id="t">Cthulhu despierta bajo el mar</title><desc id="d">Criatura ancestral de alas y tentáculos entre corrientes violeta y verde abisal.</desc><defs><linearGradient id="b" x1="70" x2="512" y1="20" y2="739" gradientUnits="userSpaceOnUse"><stop stop-color="#202538"/><stop offset="1" stop-color="#101b1a"/></linearGradient><radialGradient id="g"><stop stop-color="#a7c879" stop-opacity=".62"/><stop offset="1" stop-color="#a7c879" stop-opacity="0"/></radialGradient></defs><path fill="url(#b)" d="M0 0h600v760H0z"/><circle cx="310" cy="330" r="260" fill="url(#g)"/><path stroke="#9d82d4" stroke-opacity=".4" d="M35 36h530v688H35z"/><path fill="#182520" stroke="#91b46a" stroke-opacity=".75" stroke-width="3" d="M145 364c14-111 68-174 155-185 83 18 140 83 156 185-37-33-73-48-107-43l43 97-65-31-28 110-33-110-78 38 35-106c-30 1-56 16-78 45Z"/><path fill="#334735" stroke="#b8d28c" stroke-opacity=".62" stroke-width="2" d="M192 290c16-104 56-170 108-210 51 45 87 114 102 207-42-41-78-58-106-52-39-5-73 14-104 55Z"/><path fill="#111714" d="M214 333c21-31 47-46 79-42l-3 28c-26-5-48 1-67 21l-9-7Zm111-43c32-5 60 10 81 41l-11 9c-21-21-42-29-69-21l-1-29Z"/><circle cx="255" cy="337" r="11" fill="#b7d386"/><circle cx="365" cy="337" r="11" fill="#b7d386"/><path stroke="#b7d386" stroke-linecap="round" stroke-width="9" d="M289 383c-32 95-70 139-116 169-42 28-43 65-5 112m107-265c-8 111-41 174-78 207-32 29-19 66 22 112m87-316c1 111 13 172 35 215 21 43 14 85-23 127m31-334c36 90 76 132 115 154 42 25 42 64 1 117m-89-259c59 61 114 83 157 101 42 18 55 49 34 89"/><path stroke="#bd9de6" stroke-opacity=".78" stroke-linecap="round" stroke-width="3" d="M65 635c122-43 234-35 335 24s161 63 183 55M91 694c99-31 204-27 313 14 77 29 126 36 165 25"/><text x="59" y="690" fill="#b4cb8a" font-family="serif" font-size="15" letter-spacing="5">THE SLEEPER · R’LYEH</text></svg>
